<svg width="1280" height="910" viewBox="0 0 1280 910" fill="none" xmlns="http://www.w3.org/2000/svg">
<mask id="mask0_302_1430" style="mask-type:alpha" maskUnits="userSpaceOnUse" x="0" y="0" width="1280" height="910">
<path d="M0 0H1280V909.24H0V0Z" fill="#F5F5F5"/>
</mask>
<g mask="url(#mask0_302_1430)">
<rect x="-139.452" y="-130.623" width="1750.66" height="1214.03" fill="#F65458"/>
</g>
<rect x="526" y="349" width="164.144" height="164.144" rx="6.56683" stroke="black" stroke-width="6" stroke-dasharray="10 10"/>
<rect x="590" y="397" width="164.144" height="164.144" rx="6.56683" fill="#EFEFEC" stroke="black" stroke-width="6"/>
<path d="M648.504 446C646.729 446 644.972 446.343 643.332 447.01C641.692 447.677 640.202 448.655 638.948 449.887C637.694 451.12 636.699 452.583 636.022 454.192C635.345 455.802 634.997 457.527 635 459.268V479.139C635 480.774 635.462 482.378 636.336 483.771C637.21 485.164 638.46 486.291 639.949 487.028L657.528 495.686V468.08H685.647L707.768 446.336C707.893 446.213 707.806 446 707.63 446H648.504Z" fill="black"/>
<path d="M694.608 519.108C698.189 519.107 701.623 517.691 704.155 515.171C706.686 512.652 708.109 509.235 708.109 505.672V485.515C708.107 483.855 707.642 482.228 706.764 480.815C705.886 479.403 704.631 478.261 703.139 477.518L685.604 468.713V496.71H657.484L635.336 518.774C635.212 518.897 635.299 519.108 635.474 519.108H694.608Z" fill="black"/>
</svg>
