<svg width="1280" height="910" viewBox="0 0 1280 910" fill="none" xmlns="http://www.w3.org/2000/svg">
<mask id="mask0_391_1421" style="mask-type:alpha" maskUnits="userSpaceOnUse" x="0" y="0" width="1280" height="910">
<path d="M0 0H1280V909.24H0V0Z" fill="#F5F5F5"/>
</mask>
<g mask="url(#mask0_391_1421)">
<rect x="-139.451" y="-130.623" width="1750.66" height="1214.03" fill="#F65458"/>
</g>
<rect x="525.052" y="351.033" width="164.329" height="160.479" rx="6.56683" stroke="black" stroke-width="6" stroke-dasharray="10 10"/>
<rect x="588.931" y="397.859" width="164.329" height="160.479" rx="6.56683" fill="#EFEFEC" stroke="black" stroke-width="6"/>
<path d="M670.856 525C665.622 525 660.439 523.969 655.604 521.966C650.768 519.963 646.374 517.028 642.673 513.327C638.972 509.626 636.037 505.232 634.034 500.396C632.031 495.561 631 490.378 631 485.144C631 479.91 632.031 474.727 634.034 469.892C636.037 465.056 638.972 460.663 642.673 456.962C646.374 453.261 650.768 450.325 655.604 448.322C660.439 446.319 665.622 445.288 670.856 445.288L670.856 485.144L670.856 525Z" fill="#D9D9D9"/>
<path d="M670.857 431C676.091 431 681.274 432.031 686.109 434.034C690.945 436.037 695.338 438.972 699.039 442.673C702.74 446.374 705.676 450.768 707.679 455.604C709.682 460.439 710.713 465.622 710.713 470.856C710.713 476.09 709.682 481.273 707.679 486.108C705.676 490.944 702.74 495.337 699.039 499.038C695.338 502.739 690.945 505.675 686.109 507.678C681.274 509.681 676.091 510.712 670.857 510.712L670.857 470.856L670.857 431Z" fill="#02001D"/>
</svg>
