<svg width="738" height="641" fill="none" xmlns="http://www.w3.org/2000/svg"><path d="m286.155 154.198 35.749 35.75c7.607 7.606 19.016 12.17 30.426 12.17h50.201c23.58 0 42.596 19.016 42.596 42.595v50.202c0 11.41 4.564 22.059 12.17 30.426l35.75 35.749c16.734 16.734 16.734 43.357 0 60.09l-35.75 35.75c-7.606 7.607-12.17 19.016-12.17 30.426v50.201c0 23.58-19.016 42.596-42.596 42.596H352.33c-11.41 0-22.059 4.564-30.426 12.17l-35.749 35.75c-16.734 16.734-43.357 16.734-60.091 0l-35.749-35.75c-7.607-7.606-19.016-12.17-30.426-12.17h-50.201c-23.58 0-42.596-19.016-42.596-42.596v-50.201c0-11.41-4.564-22.059-12.17-30.426l-36.51-34.989c-16.734-16.734-16.734-43.356 0-60.09l35.75-35.75c7.606-7.606 12.17-19.016 12.17-30.425v-50.202c0-23.58 19.015-42.595 42.595-42.595h50.202c11.409 0 22.058-4.564 30.425-12.171l35.75-35.749c16.734-16.734 44.117-16.734 60.851-.761Z" fill="#F65458" stroke="#FF364E" stroke-width=".669" stroke-miterlimit="10"/><path d="m517.293 12.887 35.75 35.75c7.606 7.606 19.016 12.17 30.425 12.17h50.202c23.58 0 42.596 19.015 42.596 42.595v50.202c0 11.409 4.563 22.058 12.17 30.425l35.749 35.75c16.734 16.734 16.734 43.356 0 60.09l-35.749 35.75c-7.607 7.606-12.17 19.016-12.17 30.425v50.202c0 23.579-19.016 42.595-42.596 42.595h-50.202c-11.409 0-22.058 4.564-30.425 12.17l-35.75 35.75c-16.734 16.734-43.356 16.734-60.09 0l-35.75-35.75c-7.606-7.606-19.015-12.17-30.425-12.17h-50.202c-23.579 0-42.595-19.016-42.595-42.595v-50.202c0-11.409-4.564-22.058-12.17-30.425L249.55 280.63c-16.734-16.734-16.734-43.357 0-60.091l35.75-35.749c7.606-7.607 12.17-19.016 12.17-30.426v-50.201c0-23.58 19.016-42.596 42.596-42.596h50.201c11.41 0 22.059-4.564 30.426-12.17l35.75-35.75c16.733-16.734 44.116-16.734 60.85-.76Z" fill="#F65458" stroke="#FF364E" stroke-width=".669" stroke-miterlimit="10"/><rect x=".491" y="134.551" width="631.237" height="379.306" rx="4.698" fill="#fff" stroke="#02001D" stroke-width=".983"/><ellipse cx="11.092" cy="143.019" rx="2.773" ry="2.774" fill="#02001D"/><ellipse cx="22.181" cy="143.019" rx="2.773" ry="2.774" fill="#02001D"/><ellipse cx="33.275" cy="143.019" rx="2.773" ry="2.774" fill="#02001D"/><path d="M.491 151.637h630.881v355.814a6.26 6.26 0 0 1-6.259 6.259H6.75a6.26 6.26 0 0 1-6.259-6.259V151.637Z" stroke="#02001D" stroke-width=".983"/></svg>