<svg width="640" height="221" viewBox="0 0 640 221" fill="none" xmlns="http://www.w3.org/2000/svg">
<rect width="640" height="220.565" fill="#F65458"/>
<mask id="mask0_393_1405" style="mask-type:alpha" maskUnits="userSpaceOnUse" x="0" y="0" width="640" height="221">
<rect width="640" height="220.565" fill="#F65458"/>
</mask>
<g mask="url(#mask0_393_1405)">
<path d="M329.816 32.7926L341.444 44.421C343.918 46.8951 347.629 48.3796 351.341 48.3796H367.67C375.339 48.3796 381.525 54.5648 381.525 62.2346V78.5638C381.525 82.2749 383.009 85.7387 385.483 88.4602L397.112 100.089C402.555 105.532 402.555 114.191 397.112 119.634L385.483 131.262C383.009 133.737 381.525 137.448 381.525 141.159V157.488C381.525 165.158 375.339 171.343 367.67 171.343H351.341C347.629 171.343 344.166 172.828 341.444 175.302L329.816 186.93C324.373 192.373 315.713 192.373 310.27 186.93L298.642 175.302C296.168 172.828 292.457 171.343 288.745 171.343H272.416C264.746 171.343 258.561 165.158 258.561 157.488V141.159C258.561 137.448 257.077 133.984 254.603 131.262L242.727 119.882C237.284 114.438 237.284 105.779 242.727 100.336L254.355 88.7076C256.829 86.2335 258.314 82.5224 258.314 78.8112V62.482C258.314 54.8122 264.499 48.627 272.169 48.627H288.498C292.209 48.627 295.673 47.1425 298.394 44.6684L310.023 33.04C315.466 27.597 324.373 27.597 329.816 32.7926Z" fill="white" stroke="#FF364E" stroke-width="0.830549" stroke-miterlimit="10"/>
</g>
</svg>
