<svg width="640" height="221" viewBox="0 0 640 221" fill="none" xmlns="http://www.w3.org/2000/svg">
<rect width="640" height="220.565" fill="#F65458"/>
<mask id="mask0_393_1393" style="mask-type:alpha" maskUnits="userSpaceOnUse" x="0" y="0" width="640" height="221">
<rect width="640" height="220.565" fill="#F65458"/>
</mask>
<g mask="url(#mask0_393_1393)">
<path d="M179.092 25.9166L191.789 38.6133C194.49 41.3147 198.542 42.9356 202.595 42.9356H220.424C228.798 42.9356 235.552 49.6891 235.552 58.0635V75.8929C235.552 79.9451 237.173 83.727 239.874 86.6986L252.571 99.3953C258.514 105.338 258.514 114.793 252.571 120.737L239.874 133.433C237.173 136.135 235.552 140.187 235.552 144.239V162.068C235.552 170.443 228.798 177.196 220.424 177.196H202.595C198.542 177.196 194.761 178.817 191.789 181.518L179.092 194.215C173.149 200.158 163.694 200.158 157.751 194.215L145.054 181.518C142.353 178.817 138.301 177.196 134.249 177.196H116.419C108.045 177.196 101.291 170.443 101.291 162.068V144.239C101.291 140.187 99.6705 136.405 96.9691 133.433L84.0023 121.007C78.0591 115.064 78.0591 105.609 84.0023 99.6654L96.6989 86.9688C99.4004 84.2673 101.021 80.2152 101.021 76.1631V58.3337C101.021 49.9593 107.775 43.2057 116.149 43.2057H133.979C138.031 43.2057 141.813 41.5849 144.784 38.8835L157.481 26.1868C163.424 20.2436 173.149 20.2436 179.092 25.9166Z" fill="white" stroke="#FF364E" stroke-width="0.906854" stroke-miterlimit="10"/>
<path d="M262.708 25.9166L275.404 38.6133C278.106 41.3147 282.158 42.9356 286.21 42.9356H304.039C312.414 42.9356 319.167 49.6891 319.167 58.0635V75.8929C319.167 79.9451 320.788 83.727 323.489 86.6986L336.186 99.3953C342.129 105.338 342.129 114.793 336.186 120.737L323.489 133.433C320.788 136.135 319.167 140.187 319.167 144.239V162.068C319.167 170.443 312.414 177.196 304.039 177.196H286.21C282.158 177.196 278.376 178.817 275.404 181.518L262.708 194.215C256.764 200.158 247.309 200.158 241.366 194.215L228.67 181.518C225.968 178.817 221.916 177.196 217.864 177.196H200.035C191.66 177.196 184.907 170.443 184.907 162.068V144.239C184.907 140.187 183.286 136.405 180.584 133.433L167.618 121.007C161.674 115.064 161.674 105.609 167.618 99.6654L180.314 86.9688C183.016 84.2673 184.636 80.2152 184.636 76.1631V58.3337C184.636 49.9593 191.39 43.2057 199.764 43.2057H217.594C221.646 43.2057 225.428 41.5849 228.399 38.8835L241.096 26.1868C247.039 20.2436 256.764 20.2436 262.708 25.9166Z" fill="white" stroke="#FF364E" stroke-width="0.906854" stroke-miterlimit="10"/>
<path d="M346.325 25.9166L359.021 38.6133C361.723 41.3147 365.775 42.9356 369.827 42.9356H387.656C396.031 42.9356 402.784 49.6891 402.784 58.0635V75.8929C402.784 79.9451 404.405 83.727 407.107 86.6986L419.803 99.3953C425.746 105.338 425.746 114.793 419.803 120.737L407.107 133.433C404.405 136.135 402.784 140.187 402.784 144.239V162.068C402.784 170.443 396.031 177.196 387.656 177.196H369.827C365.775 177.196 361.993 178.817 359.021 181.518L346.325 194.215C340.382 200.158 330.927 200.158 324.983 194.215L312.287 181.518C309.585 178.817 305.533 177.196 301.481 177.196H283.652C275.277 177.196 268.524 170.443 268.524 162.068V144.239C268.524 140.187 266.903 136.405 264.201 133.433L251.235 121.007C245.292 115.064 245.292 105.609 251.235 99.6654L263.931 86.9688C266.633 84.2673 268.254 80.2152 268.254 76.1631V58.3337C268.254 49.9593 275.007 43.2057 283.382 43.2057H301.211C305.263 43.2057 309.045 41.5849 312.017 38.8835L324.713 26.1868C330.656 20.2436 340.382 20.2436 346.325 25.9166Z" fill="white" stroke="#FF364E" stroke-width="0.906854" stroke-miterlimit="10"/>
<path d="M414.266 25.9166L426.963 38.6133C429.664 41.3147 433.716 42.9356 437.768 42.9356H455.598C463.972 42.9356 470.726 49.6891 470.726 58.0635V75.8929C470.726 79.9451 472.347 83.727 475.048 86.6986L487.745 99.3953C493.688 105.338 493.688 114.793 487.745 120.737L475.048 133.433C472.347 136.135 470.726 140.187 470.726 144.239V162.068C470.726 170.443 463.972 177.196 455.598 177.196H437.768C433.716 177.196 429.934 178.817 426.963 181.518L414.266 194.215C408.323 200.158 398.868 200.158 392.925 194.215L380.228 181.518C377.527 178.817 373.475 177.196 369.423 177.196H351.593C343.219 177.196 336.465 170.443 336.465 162.068V144.239C336.465 140.187 334.844 136.405 332.143 133.433L319.176 121.007C313.233 115.064 313.233 105.609 319.176 99.6654L331.873 86.9688C334.574 84.2673 336.195 80.2152 336.195 76.1631V58.3337C336.195 49.9593 342.949 43.2057 351.323 43.2057H369.152C373.205 43.2057 376.986 41.5849 379.958 38.8835L392.655 26.1868C398.598 20.2436 408.323 20.2436 414.266 25.9166Z" fill="white" stroke="#FF364E" stroke-width="0.906854" stroke-miterlimit="10"/>
<path d="M482.208 25.9166L494.904 38.6133C497.606 41.3147 501.658 42.9356 505.71 42.9356H523.539C531.914 42.9356 538.667 49.6891 538.667 58.0635V75.8929C538.667 79.9451 540.288 83.727 542.989 86.6986L555.686 99.3953C561.629 105.338 561.629 114.793 555.686 120.737L542.989 133.433C540.288 136.135 538.667 140.187 538.667 144.239V162.068C538.667 170.443 531.914 177.196 523.539 177.196H505.71C501.658 177.196 497.876 178.817 494.904 181.518L482.208 194.215C476.264 200.158 466.809 200.158 460.866 194.215L448.17 181.518C445.468 178.817 441.416 177.196 437.364 177.196H419.535C411.16 177.196 404.407 170.443 404.407 162.068V144.239C404.407 140.187 402.786 136.405 400.084 133.433L387.118 121.007C381.174 115.064 381.174 105.609 387.118 99.6654L399.814 86.9688C402.516 84.2673 404.136 80.2152 404.136 76.1631V58.3337C404.136 49.9593 410.89 43.2057 419.264 43.2057H437.094C441.146 43.2057 444.928 41.5849 447.899 38.8835L460.596 26.1868C466.539 20.2436 476.264 20.2436 482.208 25.9166Z" fill="white" stroke="#FF364E" stroke-width="0.906854" stroke-miterlimit="10"/>
</g>
</svg>
