<svg width="2963" height="1010" viewBox="0 0 2963 1010" fill="none" xmlns="http://www.w3.org/2000/svg">
<g clip-path="url(#clip0_281_1335)">
<path d="M3457.13 118.959L3090.07 157.973L3431.12 298.134L3068.39 231.666L3355.97 462.859L3026.49 298.134L3237.47 600.13L2967.24 348.707L3084.29 698.387L2896.43 380.496L2910.88 748.96L2819.83 392.056L2728.79 748.96L2743.24 380.496L2555.38 698.387L2672.43 348.707L2402.19 600.13L2613.18 298.134L2283.69 462.859L2571.27 231.666L2208.55 298.134L2549.6 157.973L2182.54 118.959L2549.6 79.9449L2208.55 -60.2161L2571.27 6.25208L2283.69 -224.941L2613.18 -60.2161L2402.19 -362.212L2672.43 -110.79L2555.38 -460.469L2743.24 -142.579L2728.79 -511.043L2819.83 -154.138L2910.88 -511.043L2896.43 -142.579L3084.29 -460.469L2967.24 -110.79L3237.47 -362.212L3026.49 -60.2161L3355.97 -224.941L3068.39 6.25208L3431.12 -60.2161L3090.07 79.9449L3457.13 118.959Z" fill="#CFCFC7"/>
<path d="M141.931 827.737C605.627 509.576 377.179 282.513 58.982 744.797C160.968 191.415 -159.948 191.415 -57.9621 744.797C-377.518 281.153 -604.607 508.216 -140.911 827.737C-694.355 725.762 -694.355 1046.64 -140.911 944.668C-604.607 1262.83 -376.159 1489.89 -57.9621 1027.61C-159.948 1580.99 160.968 1580.99 58.982 1027.61C377.179 1491.25 604.268 1262.83 141.931 944.668C694.015 1046.64 694.015 725.762 141.931 827.737Z" fill="#CFCFC7"/>
</g>
<defs>
<clipPath id="clip0_281_1335">
<rect width="2963" height="1010" fill="white"/>
</clipPath>
</defs>
</svg>
