<svg width="640" height="221" viewBox="0 0 640 221" fill="none" xmlns="http://www.w3.org/2000/svg">
<rect width="640" height="220.565" fill="#F65458"/>
<mask id="mask0_393_1385" style="mask-type:alpha" maskUnits="userSpaceOnUse" x="0" y="0" width="640" height="221">
<rect width="640" height="220.565" fill="#F65458"/>
</mask>
<g mask="url(#mask0_393_1385)">
<path d="M253.075 25.9164L265.771 38.6131C268.473 41.3145 272.525 42.9353 276.577 42.9353H294.406C302.781 42.9353 309.534 49.6889 309.534 58.0633V75.8927C309.534 79.9448 311.155 83.7268 313.857 86.6984L326.553 99.395C332.496 105.338 332.496 114.793 326.553 120.736L313.857 133.433C311.155 136.134 309.534 140.186 309.534 144.239V162.068C309.534 170.442 302.781 177.196 294.406 177.196H276.577C272.525 177.196 268.743 178.817 265.771 181.518L253.075 194.215C247.132 200.158 237.677 200.158 231.733 194.215L219.037 181.518C216.335 178.817 212.283 177.196 208.231 177.196H190.402C182.027 177.196 175.274 170.442 175.274 162.068V144.239C175.274 140.186 173.653 136.405 170.951 133.433L157.985 121.006C152.042 115.063 152.042 105.608 157.985 99.6652L170.681 86.9685C173.383 84.2671 175.004 80.215 175.004 76.1628V58.3334C175.004 49.959 181.757 43.2055 190.132 43.2055H207.961C212.013 43.2055 215.795 41.5846 218.767 38.8832L231.463 26.1865C237.406 20.2434 247.132 20.2434 253.075 25.9164Z" fill="white" stroke="#FF364E" stroke-width="0.906854" stroke-miterlimit="10"/>
<path d="M336.69 25.9164L349.387 38.6131C352.088 41.3145 356.14 42.9353 360.192 42.9353H378.022C386.396 42.9353 393.15 49.6889 393.15 58.0633V75.8927C393.15 79.9448 394.77 83.7268 397.472 86.6984L410.169 99.395C416.112 105.338 416.112 114.793 410.169 120.736L397.472 133.433C394.77 136.134 393.15 140.186 393.15 144.239V162.068C393.15 170.442 386.396 177.196 378.022 177.196H360.192C356.14 177.196 352.358 178.817 349.387 181.518L336.69 194.215C330.747 200.158 321.292 200.158 315.349 194.215L302.652 181.518C299.951 178.817 295.898 177.196 291.846 177.196H274.017C265.643 177.196 258.889 170.442 258.889 162.068V144.239C258.889 140.186 257.268 136.405 254.567 133.433L241.6 121.006C235.657 115.063 235.657 105.608 241.6 99.6652L254.297 86.9685C256.998 84.2671 258.619 80.215 258.619 76.1628V58.3334C258.619 49.959 265.372 43.2055 273.747 43.2055H291.576C295.628 43.2055 299.41 41.5846 302.382 38.8832L315.079 26.1865C321.022 20.2434 330.747 20.2434 336.69 25.9164Z" fill="white" stroke="#FF364E" stroke-width="0.906854" stroke-miterlimit="10"/>
<path d="M420.303 25.9164L433 38.6131C435.701 41.3145 439.753 42.9353 443.806 42.9353H461.635C470.009 42.9353 476.763 49.6889 476.763 58.0633V75.8927C476.763 79.9448 478.384 83.7268 481.085 86.6984L493.782 99.395C499.725 105.338 499.725 114.793 493.782 120.736L481.085 133.433C478.384 136.134 476.763 140.186 476.763 144.239V162.068C476.763 170.442 470.009 177.196 461.635 177.196H443.806C439.753 177.196 435.971 178.817 433 181.518L420.303 194.215C414.36 200.158 404.905 200.158 398.962 194.215L386.265 181.518C383.564 178.817 379.512 177.196 375.46 177.196H357.63C349.256 177.196 342.502 170.442 342.502 162.068V144.239C342.502 140.186 340.881 136.405 338.18 133.433L325.213 121.006C319.27 115.063 319.27 105.608 325.213 99.6652L337.91 86.9685C340.611 84.2671 342.232 80.215 342.232 76.1628V58.3334C342.232 49.959 348.986 43.2055 357.36 43.2055H375.189C379.242 43.2055 383.024 41.5846 385.995 38.8832L398.692 26.1865C404.635 20.2434 414.36 20.2434 420.303 25.9164Z" fill="white" stroke="#FF364E" stroke-width="0.906854" stroke-miterlimit="10"/>
</g>
</svg>
