<svg width="84" height="84" viewBox="0 0 84 84" fill="none" xmlns="http://www.w3.org/2000/svg">
<circle cx="42" cy="42" r="42" fill="white"/>
<path d="M42.4025 63.4039C39.9858 63.4039 37.5927 62.9279 35.36 62.003C33.1272 61.0782 31.0985 59.7226 29.3896 58.0137C27.6807 56.3049 26.3251 54.2761 25.4003 52.0433C24.4754 49.8106 23.9994 47.4175 23.9994 45.0008C23.9994 42.584 24.4754 40.191 25.4003 37.9582C26.3251 35.7254 27.6807 33.6967 29.3896 31.9878C31.0985 30.2789 33.1272 28.9234 35.36 27.9985C37.5927 27.0737 39.9858 26.5977 42.4025 26.5977L42.4025 45.0008L42.4025 63.4039Z" fill="#D9D9D9"/>
<path d="M42.4031 20.0004C44.8199 20.0004 47.2129 20.4764 49.4457 21.4013C51.6785 22.3261 53.7072 23.6817 55.4161 25.3905C57.125 27.0994 58.4805 29.1282 59.4054 31.3609C60.3302 33.5937 60.8062 35.9868 60.8062 38.4035C60.8062 40.8203 60.3302 43.2133 59.4054 45.4461C58.4805 47.6789 57.125 49.7076 55.4161 51.4165C53.7072 53.1254 51.6785 54.4809 49.4457 55.4058C47.2129 56.3306 44.8199 56.8066 42.4031 56.8066L42.4031 38.4035L42.4031 20.0004Z" fill="#FF364E"/>
</svg>
