<svg width="1200" height="585" fill="none" xmlns="http://www.w3.org/2000/svg"><g clip-path="url(#a)" fill="#CFCFC7"><path d="m1392 80.939-155.51 16.53 144.49 59.388-153.67-28.163 121.83 97.959-139.59-69.796 89.39 127.959-114.49-106.53 49.59 148.163-79.59-134.694 6.12 156.123L1122 196.653l-38.57 151.225 6.12-156.123-79.59 134.694 49.59-148.163-114.489 106.53 89.389-127.959-139.593 69.796 121.833-97.959-153.67 28.163 144.49-59.388L852 80.94l155.51-16.53L863.02 5.02l153.67 28.164-121.833-97.96L1034.45 5.02l-89.389-127.959 114.489 106.53-49.59-148.162 79.59 134.694L1083.43-186 1122-34.775 1160.57-186l-6.12 156.123 79.59-134.694-49.59 148.163 114.49-106.531-89.39 127.96 139.59-69.796-121.83 97.959L1380.98 5.02l-144.49 59.388L1392 80.938ZM88.978 496.76c213.92-146.795 108.528-251.56-38.267-38.267 47.05-255.324-101-255.324-53.951 0-147.423-213.92-252.187-109.156-38.267 38.267-255.324-47.05-255.324 101 0 53.951-213.92 146.795-108.528 251.559 38.267 38.267-47.05 255.323 101 255.323 53.95 0 146.796 213.92 251.56 108.528 38.268-38.267 254.696 47.049 254.696-101.001 0-53.951Z"/></g><defs><clipPath id="a"><path fill="#fff" d="M0 0h1200v585H0z"/></clipPath></defs></svg>