<svg width="25" height="32" viewBox="0 0 25 32" fill="none" xmlns="http://www.w3.org/2000/svg">
<path d="M11.8391 31.3949C10.2844 31.3949 8.74491 31.0887 7.30853 30.4938C5.87214 29.8988 4.56701 29.0267 3.46765 27.9274C2.36829 26.828 1.49623 25.5229 0.901266 24.0865C0.306297 22.6501 6.99185e-05 21.1106 7.00544e-05 19.5559C7.01903e-05 18.0011 0.306297 16.4616 0.901267 15.0253C1.49624 13.5889 2.3683 12.2837 3.46766 11.1844C4.56702 10.085 5.87215 9.21296 7.30853 8.61799C8.74491 8.02302 10.2844 7.7168 11.8391 7.7168L11.8391 19.5559L11.8391 31.3949Z" fill="#000024"/>
<path d="M13.1609 0.796457C14.7156 0.796457 16.2551 1.10268 17.6915 1.69765C19.1279 2.29262 20.433 3.16468 21.5323 4.26404C22.6317 5.3634 23.5038 6.66853 24.0987 8.10492C24.6937 9.5413 24.9999 11.0808 24.9999 12.6355C24.9999 14.1903 24.6937 15.7298 24.0987 17.1662C23.5038 18.6025 22.6317 19.9077 21.5323 21.007C20.433 22.1064 19.1279 22.9784 17.6915 23.5734C16.2551 24.1684 14.7156 24.4746 13.1609 24.4746L13.1609 12.6355L13.1609 0.796457Z" fill="#000024"/>
</svg>
